<svg xmlns="http://www.w3.org/2000/svg" xmlns:xlink="http://www.w3.org/1999/xlink" width="39.486" height="22.079" viewBox="0 0 39.486 22.079">
  <defs>
    <clipPath id="clip-path">
      <rect id="SVGID" width="39.486" height="22.079" fill="#333"/>
    </clipPath>
  </defs>
  <g id="组_18228" data-name="组 18228" transform="translate(-568 -322)">
    <path id="路径_17672" data-name="路径 17672" d="M668.605,405.232a.6.6,0,0,1-.605-.605V390.908a.605.605,0,1,1,1.21,0v13.719a.6.6,0,0,1-.605.605Zm4.358,0a.6.6,0,0,1-.605-.605V390.908a.605.605,0,1,1,1.21,0v13.719a.6.6,0,0,1-.605.605Zm4.358,0a.6.6,0,0,1-.605-.605V390.908a.605.605,0,0,1,1.211,0v13.719a.605.605,0,0,1-.605.605Zm4.357,0a.6.6,0,0,1-.605-.605V390.908a.605.605,0,0,1,1.211,0v13.719a.605.605,0,0,1-.606.605Zm4.358,0a.6.6,0,0,1-.605-.605V390.908a.605.605,0,1,1,1.211,0v13.719a.6.6,0,0,1-.605.605Zm4.358,0a.605.605,0,0,1-.605-.605V390.908a.605.605,0,0,1,1.211,0v13.719a.605.605,0,0,1-.605.605Zm0,0" transform="translate(-94.957 -64.858)" fill="#333"/>
    <path id="路径_17673" data-name="路径 17673" d="M1186.185,598.751h-3.877v-6.288h3.877v.711h1.078v-1.789h-6.033v8.444h6.033v-1.782h-1.078Zm0,0" transform="translate(-582.301 -255.798)" fill="#00397d"/>
    <g id="组_18227" data-name="组 18227" transform="translate(568 322)">
      <g id="组_18226" data-name="组 18226" transform="translate(0 0)" clip-path="url(#clip-path)">
        <path id="路径_17674" data-name="路径 17674" d="M1271.154,637.391H1269v1.515l-2.054-2.054L1269,634.8v1.515h2.155Zm0,0" transform="translate(-1231.693 -619.023)" fill="#00397d"/>
        <path id="路径_17675" data-name="路径 17675" d="M597.236,341.716H570.018V323.921H603.83v10.343h2.013V323.72a1.818,1.818,0,0,0-1.816-1.816H569.816A1.819,1.819,0,0,0,568,323.72v18.2a1.818,1.818,0,0,0,1.816,1.816h27.42Zm0,0" transform="translate(-568 -321.909)" fill="#333"/>
      </g>
    </g>
    <path id="路径_17676" data-name="路径 17676" d="M1187.608,399.332v-8.424a.605.605,0,1,0-1.21,0v8.424Zm0,0" transform="translate(-587.208 -64.858)" fill="#333"/>
  </g>
</svg>
