<svg xmlns="http://www.w3.org/2000/svg" xmlns:xlink="http://www.w3.org/1999/xlink" width="36.285" height="35.689" viewBox="0 0 36.285 35.689">
  <defs>
    <clipPath id="clip-path">
      <rect id="SVGID" width="36.285" height="35.689" fill="none" stroke="#333" stroke-width="1"/>
    </clipPath>
  </defs>
  <g id="组_19376" data-name="组 19376" transform="translate(-625 -212)">
    <g id="组_18230" data-name="组 18230" transform="translate(625 212)">
      <g id="组_18229" data-name="组 18229" transform="translate(0 0)" clip-path="url(#clip-path)">
        <path id="路径_17677" data-name="路径 17677" d="M744.6,585.2a2.518,2.518,0,1,1-2.518,2.518A2.525,2.525,0,0,1,744.6,585.2Zm16.367,0a2.518,2.518,0,1,1-2.518,2.518,2.525,2.525,0,0,1,2.518-2.518Zm0,0" transform="translate(-734.651 -565.175)" fill="#00397d"/>
        <path id="路径_17678" data-name="路径 17678" d="M643.247,214a3.806,3.806,0,0,1,3.777,3.651v.126h3.336a3.841,3.841,0,0,1,3.525,2.14l.063.126.126.378.315.944c.252.818.5,1.637.755,2.392l.189.567c.378,1.2.693,2.2.944,2.9A3.762,3.762,0,0,1,659.613,231v7.554a3.117,3.117,0,0,1-3.147,3.147h-.5v1.574a2.768,2.768,0,0,1-2.77,2.833,2.808,2.808,0,0,1-2.77-2.833V241.7H635.945v1.574a2.77,2.77,0,1,1-5.539,0V241.7h-.378a3.117,3.117,0,0,1-3.147-3.147V231a3.76,3.76,0,0,1,3.273-3.777c.252-.755.566-1.7.944-2.9.315-.944.629-1.952.944-2.959a12.711,12.711,0,0,0,.441-1.322,3.794,3.794,0,0,1,3.4-2.266h3.588A3.788,3.788,0,0,1,643.247,214Zm12.715,14.478H630.531A2.461,2.461,0,0,0,628.139,231v7.554a1.855,1.855,0,0,0,1.888,1.889h1.763v2.833a1.512,1.512,0,1,0,3.022,0v-2.833h17v2.833a1.512,1.512,0,1,0,3.022,0v-2.833h1.637a1.855,1.855,0,0,0,1.888-1.889V231a2.461,2.461,0,0,0-2.392-2.518Zm-5.6-9.442H636.133a2.577,2.577,0,0,0-2.392,1.385,12.665,12.665,0,0,1-.441,1.322c-.252.818-.5,1.637-.755,2.392l-.189.567c-.315,1.007-.63,1.825-.818,2.518h23.48c-.189-.63-.441-1.385-.755-2.2l-.063-.252c-.315-.944-.63-1.951-.944-2.959-.189-.5-.189-.567-.315-.881v-.063l-.126-.378a2.6,2.6,0,0,0-2.266-1.385Zm-7.113-3.777a2.544,2.544,0,0,0-2.518,2.392v.126h5.036a2.525,2.525,0,0,0-2.518-2.518Zm0,0" transform="translate(-625.117 -212.231)" fill="#333" stroke="#333" stroke-width="1"/>
      </g>
    </g>
  </g>
</svg>
