<svg xmlns="http://www.w3.org/2000/svg" xmlns:xlink="http://www.w3.org/1999/xlink" width="42.66" height="42.71" viewBox="0 0 42.66 42.71">
  <defs>
    <clipPath id="clip-path">
      <rect id="SVGID" width="42.66" height="42.71" fill="#fff"/>
    </clipPath>
  </defs>
  <g id="组_17577" data-name="组 17577" transform="translate(0)">
    <path id="路径_17436" data-name="路径 17436" d="M682.685,268.385H659.779a4.5,4.5,0,0,1-4.5-4.5V240.979a4.5,4.5,0,0,1,4.5-4.5h22.873a4.5,4.5,0,0,1,4.5,4.5v22.872a4.459,4.459,0,0,1-4.467,4.534Zm-22.906-30.564a3.153,3.153,0,0,0-3.157,3.157v22.872a3.153,3.153,0,0,0,3.157,3.157h22.873a3.153,3.153,0,0,0,3.157-3.157V240.979a3.153,3.153,0,0,0-3.157-3.157Zm0,0" transform="translate(-649.911 -231.1)" fill="#fff"/>
    <g id="组_17576" data-name="组 17576" transform="translate(0 0)">
      <g id="组_17575" data-name="组 17575" transform="translate(0 0)" clip-path="url(#clip-path)">
        <path id="路径_17437" data-name="路径 17437" d="M757.31,338.846H734.337a.317.317,0,0,1-.336-.336V315.537a.317.317,0,0,1,.336-.336H757.31a.317.317,0,0,1,.336.336V338.51a.361.361,0,0,1-.336.336Zm-22.638-.672h22.3v-22.3h-22.3Zm0,0" transform="translate(-724.502 -305.692)" fill="#fff"/>
        <path id="路径_17438" data-name="路径 17438" d="M565.643,153.224a.317.317,0,0,1-.336-.336v-6.046a.317.317,0,0,1,.336-.336h6.046a.336.336,0,1,1,0,.672h-5.71v5.71a.361.361,0,0,1-.336.336Zm6.046,11.084h-6.046a.317.317,0,0,1-.336-.336v-6.046a.336.336,0,0,1,.672,0v5.71h5.71a.318.318,0,0,1,.336.336.336.336,0,0,1-.336.336Zm11.084,0h-6.046a.336.336,0,0,1,0-.672h5.71v-5.71a.336.336,0,0,1,.672,0v6.046a.317.317,0,0,1-.336.336Zm0-11.084a.318.318,0,0,1-.336-.336v-5.71h-5.71a.336.336,0,0,1,0-.672h6.046a.317.317,0,0,1,.336.336v6.046a.336.336,0,0,1-.336.336Zm-18.742-14.476a.674.674,0,0,1-.672-.672v-3.325a.672.672,0,1,1,1.344,0v3.325a.674.674,0,0,1-.672.672Zm6.785,0a.674.674,0,0,1-.672-.672v-3.325a.672.672,0,1,1,1.343,0v3.325a.674.674,0,0,1-.672.672Zm6.784,0a.674.674,0,0,1-.672-.672v-3.325a.672.672,0,0,1,1.344,0v3.325a.674.674,0,0,1-.672.672Zm6.785,0a.674.674,0,0,1-.672-.672v-3.325a.672.672,0,1,1,1.344,0v3.325a.674.674,0,0,1-.672.672Zm-20.354,37.986a.674.674,0,0,1-.672-.672v-3.325a.672.672,0,1,1,1.344,0v3.325a.674.674,0,0,1-.672.672Zm6.785,0a.674.674,0,0,1-.672-.672v-3.325a.672.672,0,1,1,1.343,0v3.325a.674.674,0,0,1-.672.672Zm6.784,0a.674.674,0,0,1-.672-.672v-3.325a.672.672,0,0,1,1.344,0v3.325a.674.674,0,0,1-.672.672Zm6.785,0a.674.674,0,0,1-.672-.672v-3.325a.672.672,0,0,1,1.344,0v3.325a.674.674,0,0,1-.672.672ZM594.864,145.9h-3.325a.672.672,0,1,1,0-1.344h3.325a.672.672,0,0,1,0,1.344Zm0,6.784h-3.325a.672.672,0,1,1,0-1.343h3.325a.672.672,0,1,1,0,1.343Zm0,6.785h-3.325a.672.672,0,1,1,0-1.344h3.325a.672.672,0,0,1,0,1.344Zm0,6.785h-3.325a.672.672,0,1,1,0-1.344h3.325a.672.672,0,1,1,0,1.344ZM556.877,145.9h-3.325a.672.672,0,0,1,0-1.344h3.325a.672.672,0,0,1,0,1.344Zm0,6.784h-3.325a.672.672,0,1,1,0-1.343h3.325a.672.672,0,1,1,0,1.343Zm0,6.785h-3.325a.672.672,0,0,1,0-1.344h3.325a.672.672,0,0,1,0,1.344Zm0,6.785h-3.325a.672.672,0,1,1,0-1.344h3.325a.672.672,0,1,1,0,1.344Zm0,0" transform="translate(-552.886 -134.076)" fill="#fff"/>
      </g>
    </g>
  </g>
</svg>
