<svg id="组_15123" data-name="组 15123" xmlns="http://www.w3.org/2000/svg" xmlns:xlink="http://www.w3.org/1999/xlink" width="22.493" height="28.165" viewBox="0 0 22.493 28.165">
  <defs>
    <clipPath id="clip-path">
      <rect id="SVGID" width="22.493" height="28.165" fill="#5c5c66" stroke="#fff" stroke-width="0.3"/>
    </clipPath>
  </defs>
  <g id="组_15122" data-name="组 15122" transform="translate(0 0)">
    <g id="组_15121" data-name="组 15121" transform="translate(0 0)" clip-path="url(#clip-path)">
      <path id="路径_16723" data-name="路径 16723" d="M662.944,158.689a9.485,9.485,0,0,1,9.542,9.4,4.173,4.173,0,0,1-.064.7,15.841,15.841,0,0,1-2.72,5.682c-.737,1.083-4.636,5.536-6.654,7.775-2.228-2.228-6.623-6.78-7.3-7.775a10.4,10.4,0,0,1-1.906-5.485,6.049,6.049,0,0,0-.062-.781,2.066,2.066,0,0,1-.028-.258,9.027,9.027,0,0,1,9.191-9.264m0-1.873a10.933,10.933,0,0,0-11.064,11.137c0,.337.09.677.09,1.039a12.148,12.148,0,0,0,2.232,6.535c1.076,1.588,8.781,9.389,8.919,9.389.117,0,7.049-7.794,8.132-9.389a17.576,17.576,0,0,0,3.018-6.425,6.08,6.08,0,0,0,.09-1.01,11.348,11.348,0,0,0-11.416-11.277Zm0,0" transform="translate(-651.884 -156.786)" fill="#5c5c66" stroke="#fff" stroke-width="0.3"/>
    </g>
  </g>
  <path id="路径_16724" data-name="路径 16724" d="M811.136,311.915a3.747,3.747,0,1,1-3.75,3.748,3.75,3.75,0,0,1,3.75-3.748m0-1.873a5.62,5.62,0,1,0,5.617,5.622,5.621,5.621,0,0,0-5.617-5.622Zm0,0" transform="translate(-799.897 -304.407)" fill="#5c5c66" stroke="#fff" stroke-width="0.3"/>
</svg>
