<svg xmlns="http://www.w3.org/2000/svg" xmlns:xlink="http://www.w3.org/1999/xlink" width="28.123" height="28.165" viewBox="0 0 28.123 28.165">
  <defs>
    <clipPath id="clip-path">
      <rect id="SVGID" width="28.123" height="28.165" fill="#5c5c66"/>
    </clipPath>
  </defs>
  <g id="组_15120" data-name="组 15120" transform="translate(0)">
    <g id="组_15119" data-name="组 15119">
      <g id="组_15118" data-name="组 15118" transform="translate(0 0)" clip-path="url(#clip-path)">
        <path id="路径_16722" data-name="路径 16722" d="M624.79,189.913l-2.938-2.554v-9.069a.6.6,0,0,0-.639-.639h-20.5a.6.6,0,0,0-.639.639v9.261l-2.938,2.363a.582.582,0,0,0-.255.511v14.691a.6.6,0,0,0,.639.639h26.824a.6.6,0,0,0,.639-.639v-14.69a.725.725,0,0,0-.192-.511Zm-3-.83,1.533,1.277-1.532,1.022v-2.3Zm-20.438-10.155h19.161v13.348l-6.579,4.535h-6l-6.578-4.535Zm-1.277,10.282v2.235l-1.469-1.022Zm-1.916,2.427,8.495,5.812-8.5,6.387v-12.2Zm1.277,12.837,8.494-6.386h5.94l8.558,6.387H599.435Zm24.27-.639-8.495-6.387,8.495-5.812v12.2Zm-5.748-15.328H603.906v1.278h14.051Zm0-3.193H603.906v1.277h14.051Zm-10.219-3.194h-3.832V183.4h3.832Zm0,0" transform="translate(-596.885 -177.625)" fill="#5c5c66"/>
      </g>
    </g>
  </g>
</svg>
