<svg xmlns="http://www.w3.org/2000/svg" xmlns:xlink="http://www.w3.org/1999/xlink" width="30.93" height="28.165" viewBox="0 0 30.93 28.165">
  <defs>
    <clipPath id="clip-path">
      <rect id="SVGID" width="30.93" height="28.165" fill="none"/>
    </clipPath>
  </defs>
  <g id="组_15115" data-name="组 15115" transform="translate(0)">
    <g id="组_15114" data-name="组 15114" transform="translate(0 0)">
      <g id="组_15113" data-name="组 15113" transform="translate(0 0)" clip-path="url(#clip-path)">
        <path id="路径_16721" data-name="路径 16721" d="M613.055,201.945H596.534v-1.054a1.76,1.76,0,0,0-1.757-1.758h-4.921a1.76,1.76,0,0,0-1.758,1.758v1.054h-2.46a1.76,1.76,0,0,0-1.758,1.758V225.5a1.76,1.76,0,0,0,1.758,1.758h27.417a1.759,1.759,0,0,0,1.758-1.758V203.7a1.76,1.76,0,0,0-1.758-1.758Zm-23.55-1.054a.351.351,0,0,1,.351-.352h4.921a.352.352,0,0,1,.351.352v18.981a.351.351,0,0,1-.351.352h-4.921a.351.351,0,0,1-.351-.352Zm23.9,24.6a.352.352,0,0,1-.352.352H585.638a.352.352,0,0,1-.352-.352V203.7a.352.352,0,0,1,.352-.352h2.46v16.52a1.76,1.76,0,0,0,1.758,1.758h4.921a1.76,1.76,0,0,0,1.757-1.758v-16.52h16.521a.351.351,0,0,1,.352.352Zm-13.357-13.709a.7.7,0,1,1-.5.206.7.7,0,0,1,.5-.206Zm4.218,8.436a.7.7,0,1,1-.5.206.7.7,0,0,1,.5-.206Zm0-4.218a.7.7,0,1,1-.5.206.7.7,0,0,1,.5-.206Zm-4.218,4.218a.7.7,0,1,1-.5.206.7.7,0,0,1,.5-.206Zm0-4.218a.7.7,0,1,1-.5.206.7.7,0,0,1,.5-.206Zm4.218-4.218a.7.7,0,1,1-.5.206.7.7,0,0,1,.5-.206Zm-4.218-5.624h8.436a.7.7,0,0,1,0,1.406h-8.436a.7.7,0,1,1,0-1.406Zm8.436,5.624a.7.7,0,1,1-.5.206.7.7,0,0,1,.5-.206Zm0,8.436a.7.7,0,1,1-.5.206.7.7,0,0,1,.5-.206Zm0-4.218a.7.7,0,1,1-.5.206.7.7,0,0,1,.5-.206Zm0,0" transform="translate(-583.885 -199.128)" fill="#5c5c66"/>
      </g>
    </g>
  </g>
</svg>
