<svg id="组_17252" data-name="组 17252" xmlns="http://www.w3.org/2000/svg" xmlns:xlink="http://www.w3.org/1999/xlink" width="20" height="20" viewBox="0 0 20 20">
  <defs>
    <clipPath id="clip-path">
      <rect id="矩形_3775" data-name="矩形 3775" width="20" height="20"/>
    </clipPath>
  </defs>
  <g id="组_1805" data-name="组 1805" clip-path="url(#clip-path)">
    <path id="路径_4243" data-name="路径 4243" d="M10.01,19.18H10a1.18,1.18,0,0,1-.85-.36,47.7,47.7,0,0,1-3.31-3.94c-2.11-2.84-3.18-5.1-3.18-6.73a7.33,7.33,0,0,1,14.66,0,8.026,8.026,0,0,1-1.12,3.58,30.471,30.471,0,0,1-3.21,4.63l-.01.01-2.1,2.41a1.136,1.136,0,0,1-.87.4Z" fill="none" stroke="#fff" stroke-miterlimit="10" stroke-width="1.2"/>
    <circle id="椭圆_1192" data-name="椭圆 1192" cx="2.2" cy="2.2" r="2.2" transform="translate(7.8 5.95)" fill="none" stroke="#fff" stroke-miterlimit="10" stroke-width="1.2"/>
  </g>
</svg>
