<svg xmlns="http://www.w3.org/2000/svg" xmlns:xlink="http://www.w3.org/1999/xlink" width="25" height="25" viewBox="0 0 25 25">
  <defs>
    <clipPath id="clip-path">
      <rect id="矩形_15552" data-name="矩形 15552" width="25" height="25" fill="#fff" stroke="#707070" stroke-width="1"/>
    </clipPath>
  </defs>
  <g id="蒙版组_199" data-name="蒙版组 199" clip-path="url(#clip-path)">
    <g id="组_17459" data-name="组 17459" transform="translate(0.903 0.425)">
      <path id="路径_17304" data-name="路径 17304" d="M1370.073-1189.079a4.1,4.1,0,0,1-.43-.164,1.606,1.606,0,0,1-.935-1.515c-.008-1.823,0-3.646,0-5.47v-.195a8.81,8.81,0,0,1-1.05-.567,1.975,1.975,0,0,1-.783-1.542c-.019-.274-.009-.55,0-.825,0-.241.107-.337.35-.341.171,0,.343,0,.542,0,0-.369,0-.72,0-1.071a.417.417,0,0,1,.059-.264.376.376,0,0,1,.294-.117.369.369,0,0,1,.212.256c.03.28.013.565.015.848,0,.108,0,.216,0,.336h1.3q0-.465,0-.931c0-.094-.032-.212.012-.277a.546.546,0,0,1,.293-.243.235.235,0,0,1,.269.258c0,.275,0,.55.005.825,0,.116,0,.233,0,.381a3.3,3.3,0,0,1,.6.01c.106.02.273.137.276.216a3.945,3.945,0,0,1-.1,1.585,2.173,2.173,0,0,1-1.712,1.387c0,.289,0,.586,0,.883,0,1.587.009,3.175,0,4.763a1.121,1.121,0,0,0,1.209,1.218c.54-.026,1.082-.005,1.629-.005a2.049,2.049,0,0,1,1.454-1.666,2.014,2.014,0,0,1,.578-.082c1.108-.008,2.216,0,3.325,0h.349v-3.536c-.094,0-.192-.012-.29-.012h-3.843a1.466,1.466,0,0,1-1.512-1.128,1.862,1.862,0,0,1-.035-.421c0-2.963.012-5.926-.01-8.889a1.518,1.518,0,0,1,1.552-1.55q4.456.028,8.913,0a1.518,1.518,0,0,1,1.529,1.553c-.012,2.955,0,5.91,0,8.865a1.475,1.475,0,0,1-1.563,1.567c-1.367,0-2.735,0-4.121,0v3.548h.234c1.147,0,2.3-.005,3.443,0a2,2,0,0,1,1.964,1.972c0,.112-.092.226-.141.339Zm2.629-11.862h0q0,2.227,0,4.455a.9.9,0,0,0,.974.987q4.443,0,8.886,0a.916.916,0,0,0,1-1.012q0-4.432,0-8.863a.905.905,0,0,0-.99-1q-4.432,0-8.863,0a.9.9,0,0,0-1.006,1Q1372.7-1203.157,1372.7-1200.941Zm.038,11.292h10.774a.873.873,0,0,0-.017-.145,1.473,1.473,0,0,0-1.424-1.027c-1.241,0-2.483,0-3.724,0-1.375,0-2.75,0-4.125,0A1.448,1.448,0,0,0,1372.739-1189.65Zm-5.269-9.467a1.679,1.679,0,0,0,.57,1.742,1.582,1.582,0,0,0,1.7.14,1.707,1.707,0,0,0,.8-1.882Z" transform="translate(-1360.932 1213.228)" fill="#fff" stroke="#fff" stroke-width="0.3"/>
      <path id="路径_17305" data-name="路径 17305" d="M1438.4-1340.481a.391.391,0,0,1,.157.444c-.072.344-.107.7-.16,1.043-.034.227-.155.347-.329.314-.22-.041-.258-.2-.23-.392.053-.356.1-.713.173-1.064a1.294,1.294,0,0,1,.2-.345Z" transform="translate(-1428.551 1340.481)" fill="#fff" stroke="#fff" stroke-width="0.3"/>
      <path id="路径_17306" data-name="路径 17306" d="M1292.3-1283.309a5.938,5.938,0,0,1,5.081-5.7,5.885,5.885,0,0,1,6.06,2.7.466.466,0,0,1,.089.321.31.31,0,0,1-.226.2.412.412,0,0,1-.3-.163,5.432,5.432,0,0,0-3.475-2.458,5.487,5.487,0,0,0-6.026,2.778,5.42,5.42,0,0,0,1.444,6.859c.019.015.035.031.053.046.2.173.248.341.109.478a.305.305,0,0,1-.461-.031,10.377,10.377,0,0,1-.947-.915A6.118,6.118,0,0,1,1292.3-1283.309Z" transform="translate(-1289.884 1291.515)" fill="#fff" stroke="#fff" stroke-width="0.3"/>
      <path id="路径_17307" data-name="路径 17307" d="M1335.835-1322.364c-.091.08-.172.2-.277.228a.325.325,0,0,1-.286-.117c-.214-.373-.4-.759-.593-1.146a.26.26,0,0,1,.11-.366.251.251,0,0,1,.37.077c.218.389.417.788.622,1.184a.3.3,0,0,1,.013.092Z" transform="translate(-1330.235 1324.598)" fill="#fff" stroke="#fff" stroke-width="0.3"/>
      <path id="路径_17308" data-name="路径 17308" d="M1483.251-1322.553a1.485,1.485,0,0,1-.054.163c-.192.375-.376.756-.585,1.121a.272.272,0,0,1-.4.124.277.277,0,0,1-.091-.408c.182-.346.348-.7.55-1.035a.441.441,0,0,1,.333-.172C1483.093-1322.758,1483.178-1322.619,1483.251-1322.553Z" transform="translate(-1470.707 1323.595)" fill="#fff" stroke="#fff" stroke-width="0.3"/>
      <path id="路径_17309" data-name="路径 17309" d="M1258.457-1099.279c.034-.042.079-.144.157-.187.354-.2.716-.386,1.079-.567a.268.268,0,0,1,.4.105.276.276,0,0,1-.146.407c-.355.181-.706.37-1.064.544A.289.289,0,0,1,1258.457-1099.279Z" transform="translate(-1257.641 1111.42)" fill="#fff" stroke="#fff" stroke-width="0.3"/>
      <path id="路径_17310" data-name="路径 17310" d="M1260.069-1246.2a.306.306,0,0,1-.4.317c-.379-.182-.752-.377-1.123-.576a.272.272,0,0,1-.118-.384.257.257,0,0,1,.376-.122q.567.277,1.119.583C1260-1246.343,1260.04-1246.24,1260.069-1246.2Z" transform="translate(-1257.575 1251.415)" fill="#fff" stroke="#fff" stroke-width="0.3"/>
      <path id="路径_17311" data-name="路径 17311" d="M1520.448-1289.8c-.082-.082-.179-.139-.21-.22a.291.291,0,0,1,.042-.252c.3-.318.611-.625.927-.928a.231.231,0,0,1,.369.012.25.25,0,0,1,0,.39c-.289.286-.572.577-.865.858A1.2,1.2,0,0,1,1520.448-1289.8Z" transform="translate(-1507.063 1293.603)" fill="#fff" stroke="#fff" stroke-width="0.3"/>
      <path id="路径_17312" data-name="路径 17312" d="M1241.473-1194.6c.416.066.834.121,1.248.2a.258.258,0,0,1,.2.323.257.257,0,0,1-.3.227c-.41-.055-.819-.118-1.225-.2a.271.271,0,0,1-.246-.318A.272.272,0,0,1,1241.473-1194.6Z" transform="translate(-1241.144 1201.484)" fill="#fff" stroke="#fff" stroke-width="0.3"/>
      <path id="路径_17313" data-name="路径 17313" d="M1291.24-1059.563c-.062-.049-.171-.093-.2-.169a.312.312,0,0,1,.03-.275c.3-.325.62-.643.952-.94a.327.327,0,0,1,.321.018c.067.062.109.267.062.32-.307.343-.641.663-.97.985C1291.4-1059.59,1291.332-1059.59,1291.24-1059.563Z" transform="translate(-1288.668 1074.164)" fill="#fff" stroke="#fff" stroke-width="0.3"/>
      <path id="路径_17314" data-name="路径 17314" d="M1388.431-1338.212c-.06.055-.135.168-.239.208a.225.225,0,0,1-.319-.183c-.077-.423-.14-.848-.2-1.274a.237.237,0,0,1,.224-.3.245.245,0,0,1,.314.2C1388.287-1339.131,1388.351-1338.706,1388.431-1338.212Z" transform="translate(-1380.758 1339.796)" fill="#fff" stroke="#fff" stroke-width="0.3"/>
      <path id="路径_17315" data-name="路径 17315" d="M1241.591-1142.787c-.062-.073-.192-.158-.2-.257a.341.341,0,0,1,.166-.287,12.908,12.908,0,0,1,1.367-.208c.071-.007.2.138.229.235a.22.22,0,0,1-.2.291C1242.522-1142.936,1242.089-1142.869,1241.591-1142.787Z" transform="translate(-1241.375 1152.828)" fill="#fff" stroke="#fff" stroke-width="0.3"/>
      <path id="路径_17316" data-name="路径 17316" d="M1291.935-1290.053c-.07.074-.124.175-.2.2a.327.327,0,0,1-.274-.035c-.22-.187-.421-.4-.627-.6-.1-.1-.2-.2-.3-.3a.247.247,0,0,1,0-.376.25.25,0,0,1,.392,0c.293.294.59.586.88.884A1.175,1.175,0,0,1,1291.935-1290.053Z" transform="translate(-1288.121 1293.582)" fill="#fff" stroke="#fff" stroke-width="0.3"/>
      <path id="路径_17317" data-name="路径 17317" d="M1569.3-1149.161h-2.149a.689.689,0,0,1-.234,0,.721.721,0,0,1-.352-.2c-.04-.065.041-.25.12-.334.348-.374.713-.731,1.073-1.093l1.963-1.972c.122-.123.252-.2.41-.065s.148.268,0,.422q-1.214,1.236-2.433,2.467a1.469,1.469,0,0,1-.207.149l.041.073h.247c.707,0,1.415-.007,2.122.008a.422.422,0,0,1,.317.175.374.374,0,0,1-.095.326c-1.009,1.025-2.028,2.04-3.046,3.056a.316.316,0,0,1-.458.046c-.13-.161-.073-.3.063-.431C1567.545-1147.4,1568.4-1148.263,1569.3-1149.161Z" transform="translate(-1551.197 1161.751)" fill="#fff" stroke="#fff" stroke-width="0.3"/>
    </g>
  </g>
</svg>
