<svg xmlns="http://www.w3.org/2000/svg" xmlns:xlink="http://www.w3.org/1999/xlink" width="37.326" height="37.37" viewBox="0 0 37.326 37.37">
  <defs>
    <clipPath id="clip-path">
      <rect id="矩形_15667" data-name="矩形 15667" width="37.326" height="37.37" fill="#fff"/>
    </clipPath>
  </defs>
  <g id="组_17583" data-name="组 17583" transform="translate(0)">
    <g id="组_17582" data-name="组 17582" transform="translate(0 0)">
      <g id="组_17581" data-name="组 17581" transform="translate(0 0)" clip-path="url(#clip-path)">
        <path id="路径_17444" data-name="路径 17444" d="M822.1,146.452H809.468a.59.59,0,0,1-.588-.588v-11.2a.59.59,0,0,1,.588-.588H822.1a.59.59,0,0,1,.588.588v11.2a.59.59,0,0,1-.588.588Zm-12.049-1.176h11.461V135.256H810.056Zm0,0" transform="translate(-797.13 -134.076)" fill="#fff"/>
        <path id="路径_17445" data-name="路径 17445" d="M575.156,205.738a.278.278,0,0,1-.294-.294v-5.5h-6.936a.294.294,0,0,1,0-.588h7.229a.277.277,0,0,1,.294.294v5.789a.294.294,0,0,1-.294.294Zm0,27.948h-7.229a.59.59,0,0,1-.588-.588v-7.229a.59.59,0,0,1,.588-.588h7.229a.589.589,0,0,1,.588.588V233.1a.59.59,0,0,1-.588.588Zm-6.642-1.176h6.054v-6.054h-6.054Zm-7.817,1.176h-7.229a.59.59,0,0,1-.588-.588v-7.229a.589.589,0,0,1,.588-.588H560.7a.589.589,0,0,1,.588.588V233.1a.59.59,0,0,1-.588.588Zm-6.641-1.176h6.054v-6.054h-6.054Zm35.559,1.176h-7.229a.589.589,0,0,1-.588-.588v-7.229a.589.589,0,0,1,.588-.588h7.229a.59.59,0,0,1,.588.588V233.1a.59.59,0,0,1-.588.588Zm-6.642-1.176h6.054v-6.054h-6.054Zm0,0" transform="translate(-552.885 -196.36)" fill="#fff"/>
      </g>
    </g>
    <path id="路径_17446" data-name="路径 17446" d="M661.1,603.815a.589.589,0,0,1-.588-.588v-7.171H632.775v7.171a.588.588,0,1,1-1.176,0v-7.758a.589.589,0,0,1,.588-.588H661.1a.589.589,0,0,1,.588.588v7.758a.589.589,0,0,1-.588.588Zm0,0" transform="translate(-627.99 -573.718)" fill="#fff"/>
    <path id="路径_17447" data-name="路径 17447" d="M947.07,396.816a.589.589,0,0,1-.588-.588V378.508a.588.588,0,1,1,1.175,0v17.721a.589.589,0,0,1-.588.588Zm0,0" transform="translate(-928.414 -366.72)" fill="#fff"/>
  </g>
</svg>
