<svg xmlns="http://www.w3.org/2000/svg" xmlns:xlink="http://www.w3.org/1999/xlink" width="40.336" height="40.383" viewBox="0 0 40.336 40.383">
  <defs>
    <clipPath id="clip-path">
      <rect id="SVGID" width="40.336" height="40.383" fill="#fff"/>
    </clipPath>
  </defs>
  <g id="组_17589" data-name="组 17589" transform="translate(0)">
    <path id="路径_17452" data-name="路径 17452" d="M624.282,813.676H588.714a.637.637,0,0,1-.635-.635v-5.685a.637.637,0,0,1,.635-.635h35.568a.637.637,0,0,1,.635.635v5.685a.637.637,0,0,1-.635.635Zm-34.933-1.27h34.3v-4.414h-34.3Zm0,0" transform="translate(-586.339 -773.34)" fill="#fff"/>
    <path id="路径_17453" data-name="路径 17453" d="M689.783,168.727H661.456a.662.662,0,0,1-.635-.794l8.511-33.377a.612.612,0,0,1,.6-.476H681.24a.612.612,0,0,1,.6.476l8.479,33.281a.616.616,0,0,1-.54.889Zm-27.5-1.27h26.676L680.8,135.35H670.443Zm0,0" transform="translate(-655.46 -134.076)" fill="#fff"/>
    <g id="组_17588" data-name="组 17588" transform="translate(0 0)">
      <g id="组_17587" data-name="组 17587" clip-path="url(#clip-path)">
        <path id="路径_17454" data-name="路径 17454" d="M620.233,174.65h-8.479a.637.637,0,0,1-.635-.635v-2.89a.632.632,0,0,1,.349-.572l10.575-5.335a.629.629,0,0,1,.7.064.658.658,0,0,1,.222.667l-2.1,8.257a.691.691,0,0,1-.635.444Zm-7.844-1.27h7.368l1.62-6.415-8.987,4.573Zm0,0" transform="translate(-608.234 -163.594)" fill="#fff"/>
        <path id="路径_17455" data-name="路径 17455" d="M556.405,175.757h-2.89a.637.637,0,0,1-.635-.635v-6.383a.637.637,0,0,1,.635-.635h2.89a.637.637,0,0,1,.635.635v6.383a.637.637,0,0,1-.635.635Zm-2.255-1.27h1.619v-5.113H554.15Zm35.536-.445h-8.479a.612.612,0,0,1-.6-.476l-2.1-8.257a.658.658,0,0,1,.222-.667.624.624,0,0,1,.7-.064l10.607,5.367a.6.6,0,0,1,.349.572v2.89a.743.743,0,0,1-.7.635Zm-8-1.27h7.368V170.93l-8.987-4.573Zm0,0" transform="translate(-552.886 -162.987)" fill="#fff"/>
      </g>
    </g>
    <path id="路径_17456" data-name="路径 17456" d="M708.941,182.352h-2.89a.637.637,0,0,1-.635-.635v-6.383a.637.637,0,0,1,.635-.635h2.89a.637.637,0,0,1,.635.635v6.383a.637.637,0,0,1-.635.635Zm-2.255-1.27h1.62v-5.113h-1.62Zm-31.058,21.309a.392.392,0,0,1-.254-.127.312.312,0,0,1,.1-.444l23.119-15.339-16.641-9.527a.39.39,0,0,1-.159-.318.339.339,0,0,1,.222-.286l13.338-4.891a.322.322,0,0,1,.222.6l-12.7,4.668,16.514,9.432a.324.324,0,0,1,.159.254.472.472,0,0,1-.127.286L675.85,202.328a.808.808,0,0,1-.222.064Zm0,0" transform="translate(-669.251 -169.582)" fill="#fff"/>
    <path id="路径_17457" data-name="路径 17457" d="M777.564,202.391a.452.452,0,0,1-.19-.064L753.81,186.7a.256.256,0,0,1-.127-.286c.032-.127.063-.222.159-.254l16.514-9.432-12.7-4.668a.322.322,0,1,1,.222-.6l13.338,4.891a.351.351,0,0,1,.222.286.323.323,0,0,1-.159.318l-16.641,9.527,23.119,15.339a.312.312,0,0,1,.1.444.57.57,0,0,1-.286.127Zm0,0" transform="translate(-743.717 -169.582)" fill="#fff"/>
  </g>
</svg>
