<svg xmlns="http://www.w3.org/2000/svg" xmlns:xlink="http://www.w3.org/1999/xlink" width="38.885" height="35.689" viewBox="0 0 38.885 35.689">
  <defs>
    <clipPath id="clip-path">
      <rect id="矩形_16155" data-name="矩形 16155" width="38.885" height="35.689" fill="#333" stroke="#333" stroke-width="1"/>
    </clipPath>
    <clipPath id="clip-path-2">
      <rect id="矩形_16157" data-name="矩形 16157" width="23.471" height="11.736" fill="#00397d" stroke="#00397d" stroke-width="1"/>
    </clipPath>
    <clipPath id="clip-path-3">
      <rect id="矩形_16155-2" data-name="矩形 16155" width="38.885" height="35.689" fill="#00397d" stroke="#00397d" stroke-width="1"/>
    </clipPath>
  </defs>
  <g id="组_19377" data-name="组 19377" transform="translate(-1041.506 -181.813)">
    <g id="组_18234" data-name="组 18234" transform="translate(1041.506 181.813)">
      <g id="组_18233" data-name="组 18233">
        <g id="组_18232" data-name="组 18232" transform="translate(0 0)" clip-path="url(#clip-path)">
          <path id="路径_17679" data-name="路径 17679" d="M589.488,225.55a.8.8,0,0,1-.48-.161,12.808,12.808,0,0,1,7.686-23.059H606.3q.239,0,.478.009l-1.845-1.845a.8.8,0,1,1,1.132-1.132l3.2,3.2a.8.8,0,0,1,0,1.133l-3.2,3.2a.8.8,0,0,1-1.132-1.133l1.826-1.827q-.229-.009-.46-.009h-9.608a11.21,11.21,0,0,0-6.725,20.178.8.8,0,0,1-.481,1.44Zm8.573,5.369a.8.8,0,0,0,0-1.132l-1.845-1.844q.239.009.478.009H606.3a12.81,12.81,0,0,0,7.687-23.06.8.8,0,0,0-.962,1.28,11.211,11.211,0,0,1-6.725,20.179h-9.608q-.23,0-.46-.009l1.826-1.827a.8.8,0,0,0-1.132-1.132l-3.2,3.2a.8.8,0,0,0,0,1.133l3.2,3.2a.8.8,0,0,0,1.132,0Zm13.045-15.778a4.81,4.81,0,0,0-4.8-4.8,6.277,6.277,0,0,0-3.725,1.343,5.494,5.494,0,0,0-1.079,1.111,5.5,5.5,0,0,0-1.079-1.111,6.277,6.277,0,0,0-3.725-1.343,4.8,4.8,0,0,0,0,9.608,6.276,6.276,0,0,0,3.725-1.343,5.493,5.493,0,0,0,1.079-1.111,5.484,5.484,0,0,0,1.079,1.111,6.276,6.276,0,0,0,3.725,1.343,4.809,4.809,0,0,0,4.8-4.8Zm-1.6,0a3.206,3.206,0,0,1-3.2,3.2c-1.8,0-4-1.478-4-3.2s2.2-3.2,4-3.2a3.206,3.206,0,0,1,3.2,3.2Zm-8.807,0c0,1.725-2.2,3.2-4,3.2a3.2,3.2,0,1,1,0-6.405c1.8,0,4,1.478,4,3.2Zm0,0" transform="translate(-582.08 -197.317)" fill="#333" stroke="#333" stroke-width="0.7"/>
        </g>
      </g>
    </g>
    <g id="蒙版组_2883" data-name="蒙版组 2883" transform="translate(1049.174 193.717)" clip-path="url(#clip-path-2)">
      <g id="组_18235" data-name="组 18235" transform="translate(-7.668 -11.904)">
        <g id="组_18233-2" data-name="组 18233">
          <g id="组_18232-2" data-name="组 18232" transform="translate(0 0)" clip-path="url(#clip-path-3)">
            <path id="路径_17679-2" data-name="路径 17679" d="M589.488,225.55a.8.8,0,0,1-.48-.161,12.808,12.808,0,0,1,7.686-23.059H606.3q.239,0,.478.009l-1.845-1.845a.8.8,0,1,1,1.132-1.132l3.2,3.2a.8.8,0,0,1,0,1.133l-3.2,3.2a.8.8,0,0,1-1.132-1.133l1.826-1.827q-.229-.009-.46-.009h-9.608a11.21,11.21,0,0,0-6.725,20.178.8.8,0,0,1-.481,1.44Zm8.573,5.369a.8.8,0,0,0,0-1.132l-1.845-1.844q.239.009.478.009H606.3a12.81,12.81,0,0,0,7.687-23.06.8.8,0,0,0-.962,1.28,11.211,11.211,0,0,1-6.725,20.179h-9.608q-.23,0-.46-.009l1.826-1.827a.8.8,0,0,0-1.132-1.132l-3.2,3.2a.8.8,0,0,0,0,1.133l3.2,3.2a.8.8,0,0,0,1.132,0Zm13.045-15.778a4.81,4.81,0,0,0-4.8-4.8,6.277,6.277,0,0,0-3.725,1.343,5.494,5.494,0,0,0-1.079,1.111,5.5,5.5,0,0,0-1.079-1.111,6.277,6.277,0,0,0-3.725-1.343,4.8,4.8,0,0,0,0,9.608,6.276,6.276,0,0,0,3.725-1.343,5.493,5.493,0,0,0,1.079-1.111,5.484,5.484,0,0,0,1.079,1.111,6.276,6.276,0,0,0,3.725,1.343,4.809,4.809,0,0,0,4.8-4.8Zm-1.6,0a3.206,3.206,0,0,1-3.2,3.2c-1.8,0-4-1.478-4-3.2s2.2-3.2,4-3.2a3.206,3.206,0,0,1,3.2,3.2Zm-8.807,0c0,1.725-2.2,3.2-4,3.2a3.2,3.2,0,1,1,0-6.405c1.8,0,4,1.478,4,3.2Zm0,0" transform="translate(-582.08 -197.317)" fill="#00397d" stroke="#00397d" stroke-width="0.7"/>
          </g>
        </g>
      </g>
    </g>
  </g>
</svg>
