<svg xmlns="http://www.w3.org/2000/svg" width="12.736" height="18.866" viewBox="0 0 12.736 18.866">
  <g id="组_17257" data-name="组 17257" transform="translate(-1340.444 -136.39)">
    <g id="组_424" data-name="组 424" transform="translate(-17.899 32)">
      <path id="路径_769" data-name="路径 769" d="M1364.47,109.28a.424.424,0,0,0,.22-.64l-1.95-3.93a.558.558,0,0,0-.77-.26l-1.37.68,2.46,4.95Z" fill="#fff"/>
      <path id="路径_770" data-name="路径 770" d="M1368.29,116.97a9.607,9.607,0,0,1-1.54.76l2.54,5.12,1.45-.93a.526.526,0,0,0,.26-.77l-1.95-3.93a.52.52,0,0,0-.76-.25Z" fill="#fff"/>
      <path id="路径_771" data-name="路径 771" d="M1359.83,105.38c-.85.42-3.21,3.62.69,11.05,3.56,7.17,7.31,7.02,8.13,6.72l-2.54-5.12c-.68.34-1.28-.43-1.83-1.33a19.024,19.024,0,0,1-1.78-3.59c-.59-1.62-.76-2.39-.08-2.73l-2.59-5Z" fill="#fff"/>
    </g>
  </g>
</svg>
