<svg id="组_196" data-name="组 196" xmlns="http://www.w3.org/2000/svg" width="18.227" height="14.159" viewBox="0 0 18.227 14.159">
  <g id="组_195" data-name="组 195">
    <path id="路径_146" data-name="路径 146" d="M1763,337h0s.79-1.2,0-2c-.99-.99-4,0-4,0-.91.28-.13-.29,0-1,0-.83-.56-1.83-3-1a9.289,9.289,0,0,0-4,3,13.159,13.159,0,0,0-2,4c.36,3.32,4.26,3.78,7,4,2.88.23,6.82-.49,8-3,1.16-2.51-1.32-3.87-2-4Zm-6,6c-2.86.13-5-1.09-5-3s2.14-3.87,5-4,5,1.09,5,3-2.14,3.87-5,4Zm0,0" transform="translate(-1750 -329.881)" fill="#fff"/>
    <path id="路径_147" data-name="路径 147" d="M1757,338a3.262,3.262,0,0,0-3,3,2.126,2.126,0,0,0,1,1,3.01,3.01,0,0,0,4-1c.87-1.13.88-3.33-2-3Zm-1,4c-.54.06-1-.55-1-1a1.125,1.125,0,0,1,1-1,.983.983,0,0,1,1,1,1.125,1.125,0,0,1-1,1Zm2-2c-.18.14-.91.17-1,0s-.18-.86,0-1c.21-.16.9.84,1,1s.18-.15,0,0Zm0,0" transform="translate(-1750 -329.881)" fill="#fff"/>
    <path id="路径_148" data-name="路径 148" d="M1765,336c.23,0-.03.23,0,0v-1c.35-3.16-2-2-2-2-.26,0-1-.26-1,0a1.882,1.882,0,0,0,1,1c2.11-.47,1,1,1,1a1.882,1.882,0,0,0,1,1Zm0,0" transform="translate(-1750 -329.881)" fill="#fff"/>
    <path id="路径_149" data-name="路径 149" d="M1764,330a4.316,4.316,0,0,0-2,0c-.02,0,.02-.01,0,0h0c-.29.08-1,.68-1,1a1.327,1.327,0,0,0,1,1,3.236,3.236,0,0,0,1,0,2.319,2.319,0,0,1,3,1,4.653,4.653,0,0,1,0,3h0a1.341,1.341,0,0,0,1,1,1.3,1.3,0,0,0,1-1h0c1.12-3.75-2.18-5.58-4-6Zm0,0" transform="translate(-1750 -329.881)" fill="#fff"/>
  </g>
</svg>
