<svg id="组_193" data-name="组 193" xmlns="http://www.w3.org/2000/svg" width="18.58" height="15.13" viewBox="0 0 18.58 15.13">
  <path id="路径_144" data-name="路径 144" d="M1701.53,334.01c.21,0,.42.02.64.04-.57-2.65-3.4-4.62-6.64-4.62-3.62,0-6.58,2.46-6.58,5.59a5.4,5.4,0,0,0,2.63,4.44l-.66,1.98,2.3-1.15a11.391,11.391,0,0,0,2.3.33,6.081,6.081,0,0,0,.61-.03,4.847,4.847,0,0,1-.2-1.38,5.4,5.4,0,0,1,5.6-5.2Zm-3.54-1.79a.82.82,0,0,1,0,1.64.835.835,0,1,1,0-1.64Zm-4.6,1.65a.835.835,0,1,1,0-1.64.82.82,0,0,1,0,1.64Zm0,0" transform="translate(-1688.95 -329.43)" fill="#fff"/>
  <path id="路径_145" data-name="路径 145" d="M1707.53,339.13c0-2.63-2.63-4.77-5.59-4.77-3.13,0-5.59,2.14-5.59,4.77s2.47,4.77,5.59,4.77a7.963,7.963,0,0,0,1.97-.33l1.8.99-.49-1.64a4.958,4.958,0,0,0,2.31-3.79Zm-7.4-.82a.66.66,0,1,1,0-1.32.676.676,0,1,1,0,1.32Zm3.62,0a.66.66,0,0,1,0-1.32.676.676,0,1,1,0,1.32Zm0,0" transform="translate(-1688.95 -329.43)" fill="#fff"/>
</svg>
