<svg xmlns="http://www.w3.org/2000/svg" width="20" height="20" viewBox="0 0 20 20">
  <path id="路径_20" data-name="路径 20" d="M74.185,74.261l0,0c0-.02-.008-.037-.009-.049,0,.018,0,.036.005.054Zm3.841,4.194h0Zm.1.012c-.024,0-.077,0-.1-.012-.013.045.007.062.1.012ZM74.383,65.96a10,10,0,1,0,10,10,10,10,0,0,0-10-10Zm6.387,3.906a1.4,1.4,0,0,0-.861.2,1.1,1.1,0,0,1-.329.219c-.127.036-.264,0-.39.047-.454.154-.382,1.127-.981.98-.281-.069-.479-.4-.621-.618-.125-.191-.352-.349-.2-.588-.07.018-.145,0-.213.011.1-.211.418-.192.471-.3.133-.27-.367-.3-.509-.335.171-.182.257.061.426.02s-.085-.253-.183-.277c-.035-.009-.605.158-.275-.138l-1.222-.779c-.069.289.542.453.742.555-.031.119-.217.293-.359.242s-.08-.27-.282-.248c-.144.336.305.237.347.443.047.234-.17.135-.254.131-.02,0-.176-.162-.184-.04-.01.145.249.088.267.235a1.047,1.047,0,0,1-.7-.259,1.114,1.114,0,0,0-.784-.173,1.507,1.507,0,0,0,.339-.144,1.563,1.563,0,0,0,.254-.266c.054-.18,0-.166-.175-.284a1.728,1.728,0,0,0-.524-.33c-.672-.134-.207.607-.717.709h0c-.118,0-.339-.033-.415.029-.054.044-.058.22-.118.284-.107.114-.266.137-.393.219a1.729,1.729,0,0,0-.472.425c-.269.514.606.674.939.824.15.068.588.161.67.274.11.152-.094.3.134.4a.282.282,0,0,0,.287-.03c.1-.115-.042-.141-.066-.274-.047-.256.031-.154.16-.25.263-.194.2-.206.109-.515-.044-.144-.209-.545-.064-.651.19-.138.595.075.74.093.169.021.266.255.358.351.061.064.171.2.278.184.17-.023.1-.172.2-.24.265-.183.334.066.44.315a1.081,1.081,0,0,0,.37.471c.082.07.441.319.407.473-.023.1-.433.261-.543.3-.4.127-1.154-.208-1.234.428.156-.058.6-.42.731-.248.061.078-.048.191-.022.268.076.232.254.151.442.113a.323.323,0,0,1-.04.021c.256-.131.229-.1.347-.317a1.528,1.528,0,0,1,.149-.288c.186-.171.215-.053.33.079.03.035.315.445.214.425a1.193,1.193,0,0,0-.924.124,2.511,2.511,0,0,1-.5.315c-.045.017-.381.048-.341-.009.058-.083.257-.139.336-.229-.218-.09-.4.108-.571.224-.182.086-.224.246-.379.387-.068.061-.2.072-.262.152s-.072.2-.133.276c-.043.052-.152.021-.2.1-.058.1.053.2.029.271-.045.134-.3.248-.4.344l.039-.039a2.237,2.237,0,0,0-.3.3,2.872,2.872,0,0,1,.115.663c-.1.3-.3-.165-.381-.287-.277-.417-.829-.138-1.207-.1a.84.84,0,0,0-.658,1.18.584.584,0,0,0,.659.282c.246-.05.319-.394.551-.4.425-.011.009.416-.027.573s.053.159.2.195c.111.026.267-.047.363.016.06.04.057.258.141.189a.394.394,0,0,0,.042.573c.186.129.4.01.6.059.367.094.192-.028.515-.223.218-.131.253.025.4.025.1,0,.166-.146.335-.1.138.035.193.141.357.166.068.01.137-.025.2-.018a1.673,1.673,0,0,1,.778.4c.2.145.329.116.56.182.169.048.481.293.465.507,0,.038-.151.231-.176.318a1.981,1.981,0,0,0,.432-.044c-.029.034-.234.177-.234.1,0,.039.145.12.18.145.107-.347.282-.124.493-.038a4.154,4.154,0,0,0,.592.123,1.6,1.6,0,0,1,.641.281c.145.16.045.419-.062.578-.14.208-.352.289-.439.534a3.928,3.928,0,0,0-.057.606c-.053.292-.1.189-.284.367-.158.15,0,.124-.218.219s-.406.067-.556.3a.394.394,0,0,0,.015-.045,1.974,1.974,0,0,0-.125.329,1.53,1.53,0,0,1-.3.373c-.046.048-.466.623-.49.576s-.363.06-.378-.025c.013.072,0,.048.079.089-.076.472-.276.542-.739.547.04.227-.168.182-.265.3a2.124,2.124,0,0,0-.123.364,3.527,3.527,0,0,0-.205.336c0,.042.061.1.118.164a8.826,8.826,0,0,1-1,.137c.063-.08.079-.15-.123-.16.054-.147.181-.23.234-.373.025-.067,0-.094.026-.16.074-.229.042-.143,0-.321-.1-.418.035-.532.148-.914a13.058,13.058,0,0,0,.181-1.325,2.121,2.121,0,0,0,.023-.815c-.079-.216-.428-.385-.587-.53a3.23,3.23,0,0,1-.514-.683,3.346,3.346,0,0,1-.249-.4c-.142-.3,0-.122.024-.3a1.947,1.947,0,0,1,.048-.5c.075-.2.263-.323.325-.523a.354.354,0,0,0-.17-.462c-.1-.033-.215.044-.318.027a1.073,1.073,0,0,1-.418-.216c-.157-.12-.216-.314-.383-.427-.14-.094-.239-.038-.389-.082s-.252-.238-.378-.3c-.189-.09-.3.039-.495.013a2.9,2.9,0,0,1-.587-.281,1.073,1.073,0,0,1-.647-.63,2.3,2.3,0,0,0-.46-.645c-.192-.237-.252-.438-.548-.5-.035-.008.072.248.083.269a6.009,6.009,0,0,0,.392.557c.188.268.108.319-.083.059-.218-.3-.472-.592-.661-.906-.072-.119-.058-.2-.176-.308s-.264-.162-.379-.266a1.564,1.564,0,0,1-.442-1.4,1.839,1.839,0,0,0,.05-.477.661.661,0,0,0-.206-.354l-.12-.189a1.6,1.6,0,0,0-.316-.437c-.086-.074-.307-.246-.516-.39a8.894,8.894,0,0,1,3.569-2.669.524.524,0,0,0,.087.209c.116.171.226.158.451.205-.024.262-.33.264-.538.236-.247-.034-.508-.116-.722.1.118.071.443.348.4.059a4.04,4.04,0,0,1,.7.009c.093.011.4.116.489.068.035-.02.073-.195.111-.248-.066,0-.137-.033-.2-.027.154-.2.307-.042.5.048-.215.131-.088.444.123.189.173-.209-.042-.361-.262-.483.221-.277.358-.3.566.011.034-.193.19-.115.352-.1v-.048c-.072,0-.148-.039-.219-.032.165-.264.06-.324.3-.411.188-.069.726,0,.792-.182a4.645,4.645,0,0,0-1.17.262c-.146.074-.321.307-.467.155s.107-.4.239-.481h-.031a8.769,8.769,0,0,1,3.048-.11c-.136.072-.036.12-.135.193a3.707,3.707,0,0,1-.752.344c.287,0,.982.269,1.115-.133l-.278-.043a2.434,2.434,0,0,1,.568-.276,8.847,8.847,0,0,1,4.69,2.59Zm1.618,3.511c.016-.035.055-.047.071-.076.033-.061.026-.1.067-.155s.1-.07.153-.115a.179.179,0,0,0,.04-.051,8.766,8.766,0,0,1,.351,1.274s0,.008-.007.011a.739.739,0,0,1-.19.039.372.372,0,0,1-.25-.127,1.176,1.176,0,0,1-.214-.234c-.056-.089-.022-.181-.017-.282,0-.086-.038-.207,0-.285Zm.114,4.585a2.729,2.729,0,0,1-.5-.543c-.13-.206-.05-.418-.04-.654.008-.2-.089-.481,0-.66.039-.082.127-.109.164-.175.078-.142.06-.237.156-.359s.24-.163.354-.265.116-.192.192-.33a1.247,1.247,0,0,1,.308-.356,8.86,8.86,0,0,1-.2,3.62,1.133,1.133,0,0,1-.434-.277Z" transform="translate(-64.383 -65.96)" fill="#333"/>
</svg>
