<svg xmlns="http://www.w3.org/2000/svg" xmlns:xlink="http://www.w3.org/1999/xlink" width="20" height="20" viewBox="0 0 20 20">
  <defs>
    <clipPath id="clip-path">
      <rect id="矩形_3" data-name="矩形 3" width="20" height="20" transform="translate(1483.269 299.269)" fill="#fff" stroke="#707070" stroke-width="1"/>
    </clipPath>
  </defs>
  <g id="蒙版组_3" data-name="蒙版组 3" transform="translate(-1483.269 -299.269)" clip-path="url(#clip-path)">
    <path id="路径_19" data-name="路径 19" d="M74.009,83.164a9.155,9.155,0,1,1,9.155-9.155A9.182,9.182,0,0,1,74.009,83.164Zm0-1.526a7.63,7.63,0,1,0-7.63-7.63A7.652,7.652,0,0,0,74.009,81.638Zm5.646,1.221a.737.737,0,0,1,.076-1.068.811.811,0,0,1,1.068.076l1.45,1.755a.737.737,0,0,1-.076,1.068.811.811,0,0,1-1.068-.076Z" transform="translate(1419.26 234.416)" fill="#333"/>
  </g>
</svg>
